<svg width="25.630249" height="25.630203" viewBox="0 0 25.6302 25.6302" fill="none" xmlns="http://www.w3.org/2000/svg" xmlns:xlink="http://www.w3.org/1999/xlink">
	<desc>
			Created with Pixso.
	</desc>
	<defs/>
	<path id="Vector" d="M9.47 18.95C6.82 18.95 4.58 18.04 2.75 16.2C0.91 14.36 0 12.12 0 9.47C-0.01 6.83 0.91 4.58 2.75 2.75C4.58 0.91 6.83 0 9.47 0C12.12 0 14.36 0.91 16.2 2.75C18.04 4.58 18.96 6.83 18.95 9.47C18.95 10.54 18.78 11.55 18.44 12.5C18.1 13.45 17.64 14.29 17.06 15.02L25.22 23.18C25.49 23.45 25.63 23.79 25.63 24.2C25.63 24.62 25.49 24.96 25.22 25.22C24.96 25.49 24.62 25.63 24.2 25.63C23.79 25.63 23.45 25.49 23.18 25.22L15.02 17.06C14.29 17.64 13.45 18.1 12.5 18.44C11.55 18.78 10.54 18.95 9.47 18.95ZM9.47 16.04C11.3 16.04 12.85 15.4 14.12 14.12C15.4 12.85 16.04 11.3 16.04 9.47C16.04 7.65 15.4 6.1 14.12 4.83C12.85 3.55 11.3 2.91 9.47 2.91C7.65 2.91 6.1 3.55 4.83 4.83C3.55 6.1 2.91 7.65 2.91 9.47C2.91 11.29 3.55 12.84 4.83 14.12C6.11 15.4 7.66 16.04 9.47 16.04Z" fill="#E6E6E6" fill-opacity="1.000000" fill-rule="nonzero"/>
</svg>
